{
DisplayStrings = (
C
);
date = "2013-08-12 11:00:38 +0000";
designer = "Shinji Pons";
designerURL = www.shinjipons.com;
familyName = "Modulo 10";
fontMaster = (
{
alignmentZones = (
"{1280, 10}",
"{0, -10}"
);
ascender = 1280;
capHeight = 1280;
customParameters = (
{
name = familyName;
value = "Modulo 10";
}
);
descender = 0;
guideLines = (
{
position = "{1534, 590}";
},
{
angle = 90;
position = "{770, -124}";
},
{
angle = 90;
position = "{670, -117}";
},
{
position = "{1533, 690}";
},
{
angle = 90;
position = "{80, -86}";
},
{
angle = 90;
position = "{1260, -69}";
},
{
position = "{1520, 1180}";
},
{
position = "{1510, 100}";
},
{
angle = 90;
position = "{1360, -75}";
},
{
angle = 90;
position = "{180, -100}";
},
{
position = "{-20, 1230}";
},
{
angle = 90;
position = "{130, 1380}";
},
{
position = "{-20, 50}";
},
{
angle = 90;
position = "{720, -100}";
},
{
angle = 90;
position = "{1310, -100}";
},
{
position = "{870, 640}";
}
);
horizontalStems = (
100
);
id = "940E2F63-624A-4C3D-A909-721782B4CF41";
verticalStems = (
100
);
weightValue = 12;
widthValue = 128;
xHeight = 1280;
}
);
glyphs = (
{
glyphname = A;
lastChange = "2013-12-16 22:57:41 +0000";
layers = (
{
layerId = "940E2F63-624A-4C3D-A909-721782B4CF41";
name = Regular;
paths = (
{
closed = 1;
nodes = (
"130 1280 LINE",
"130 1180 LINE",
"1260 1180 LINE",
"1260 100 LINE",
"180 100 LINE",
"180 590 LINE",
"720 590 LINE",
"720 690 LINE",
"130 690 LINE",
"80 640 LINE",
"80 50 LINE",
"130 0 LINE",
"1310 0 LINE",
"1360 50 LINE",
"1360 1230 LINE",
"1310 1280 LINE"
);
},
{
closed = 1;
nodes = (
"157.614 1180 OFFCURVE",
"180 1202.39 OFFCURVE",
"180 1230 CURVE SMOOTH",
"180 1257.61 OFFCURVE",
"157.614 1280 OFFCURVE",
"130 1280 CURVE SMOOTH",
"102.386 1280 OFFCURVE",
"80 1257.61 OFFCURVE",
"80 1230 CURVE SMOOTH",
"80 1202.39 OFFCURVE",
"102.386 1180 OFFCURVE",
"130 1180 CURVE SMOOTH"
);
},
{
closed = 1;
nodes = (
"1337.61 1180 OFFCURVE",
"1360 1202.39 OFFCURVE",
"1360 1230 CURVE SMOOTH",
"1360 1257.61 OFFCURVE",
"1337.61 1280 OFFCURVE",
"1310 1280 CURVE SMOOTH",
"1282.39 1280 OFFCURVE",
"1260 1257.61 OFFCURVE",
"1260 1230 CURVE SMOOTH",
"1260 1202.39 OFFCURVE",
"1282.39 1180 OFFCURVE",
"1310 1180 CURVE SMOOTH"
);
},
{
closed = 1;
nodes = (
"1337.61 0 OFFCURVE",
"1360 22.3855 OFFCURVE",
"1360 50 CURVE SMOOTH",
"1360 77.6145 OFFCURVE",
"1337.61 100 OFFCURVE",
"1310 100 CURVE SMOOTH",
"1282.39 100 OFFCURVE",
"1260 77.6145 OFFCURVE",
"1260 50 CURVE SMOOTH",
"1260 22.3855 OFFCURVE",
"1282.39 0 OFFCURVE",
"1310 0 CURVE SMOOTH"
);
},
{
closed = 1;
nodes = (
"157.614 0 OFFCURVE",
"180 22.3855 OFFCURVE",
"180 50 CURVE SMOOTH",
"180 77.6145 OFFCURVE",
"157.614 100 OFFCURVE",
"130 100 CURVE SMOOTH",
"102.386 100 OFFCURVE",
"80 77.6145 OFFCURVE",
"80 50 CURVE SMOOTH",
"80 22.3855 OFFCURVE",
"102.386 0 OFFCURVE",
"130 0 CURVE SMOOTH"
);
},
{
closed = 1;
nodes = (
"157.614 590 OFFCURVE",
"180 612.386 OFFCURVE",
"180 640 CURVE SMOOTH",
"180 667.614 OFFCURVE",
"157.614 690 OFFCURVE",
"130 690 CURVE SMOOTH",
"102.386 690 OFFCURVE",
"80 667.614 OFFCURVE",
"80 640 CURVE SMOOTH",
"80 612.386 OFFCURVE",
"102.386 590 OFFCURVE",
"130 590 CURVE SMOOTH"
);
},
{
closed = 1;
nodes = (
"747.614 590 OFFCURVE",
"770 612.386 OFFCURVE",
"770 640 CURVE SMOOTH",
"770 667.614 OFFCURVE",
"747.614 690 OFFCURVE",
"720 690 CURVE SMOOTH",
"692.386 690 OFFCURVE",
"670 667.614 OFFCURVE",
"670 640 CURVE SMOOTH",
"670 612.386 OFFCURVE",
"692.386 590 OFFCURVE",
"720 590 CURVE SMOOTH"
);
}
);
width = 1440;
}
);
unicode = 0041;
},
{
glyphname = B;
lastChange = "2013-12-16 23:02:33 +0000";
layers = (
{
layerId = "940E2F63-624A-4C3D-A909-721782B4CF41";
name = Regular;
paths = (
{
closed = 1;
nodes = (
"1310 1280 LINE",
"130 1280 LINE",
"80 1230 LINE",
"80 50 LINE",
"180 50 LINE",
"180 1180 LINE",
"1260 1180 LINE",
"1260 690 LINE",
"720 690 LINE",
"720 590 LINE",
"1260 590 LINE",
"1260 100 LINE",
"720 100 LINE",
"720 0 LINE",
"1310 0 LINE",
"1360 50 LINE",
"1360 1230 LINE"
);
},
{
closed = 1;
nodes = (
"157.614 0 OFFCURVE",
"180 22.3855 OFFCURVE",
"180 50 CURVE SMOOTH",
"180 77.6145 OFFCURVE",
"157.614 100 OFFCURVE",
"130 100 CURVE SMOOTH",
"102.386 100 OFFCURVE",
"80 77.6145 OFFCURVE",
"80 50 CURVE SMOOTH",
"80 22.3855 OFFCURVE",
"102.386 0 OFFCURVE",
"130 0 CURVE SMOOTH"
);
},
{
closed = 1;
nodes = (
"747.614 0 OFFCURVE",
"770 22.3855 OFFCURVE",
"770 50 CURVE SMOOTH",
"770 77.6145 OFFCURVE",
"747.614 100 OFFCURVE",
"720 100 CURVE SMOOTH",
"692.386 100 OFFCURVE",
"670 77.6145 OFFCURVE",
"670 50 CURVE SMOOTH",
"670 22.3855 OFFCURVE",
"692.386 0 OFFCURVE",
"720 0 CURVE SMOOTH"
);
},
{
closed = 1;
nodes = (
"1337.61 0 OFFCURVE",
"1360 22.3855 OFFCURVE",
"1360 50 CURVE SMOOTH",
"1360 77.6145 OFFCURVE",
"1337.61 100 OFFCURVE",
"1310 100 CURVE SMOOTH",
"1282.39 100 OFFCURVE",
"1260 77.6145 OFFCURVE",
"1260 50 CURVE SMOOTH",
"1260 22.3855 OFFCURVE",
"1282.39 0 OFFCURVE",
"1310 0 CURVE SMOOTH"
);
},
{
closed = 1;
nodes = (
"747.614 590 OFFCURVE",
"770 612.386 OFFCURVE",
"770 640 CURVE SMOOTH",
"770 667.614 OFFCURVE",
"747.614 690 OFFCURVE",
"720 690 CURVE SMOOTH",
"692.386 690 OFFCURVE",
"670 667.614 OFFCURVE",
"670 640 CURVE SMOOTH",
"670 612.386 OFFCURVE",
"692.386 590 OFFCURVE",
"720 590 CURVE SMOOTH"
);
},
{
closed = 1;
nodes = (
"1337.61 1180 OFFCURVE",
"1360 1202.39 OFFCURVE",
"1360 1230 CURVE SMOOTH",
"1360 1257.61 OFFCURVE",
"1337.61 1280 OFFCURVE",
"1310 1280 CURVE SMOOTH",
"1282.39 1280 OFFCURVE",
"1260 1257.61 OFFCURVE",
"1260 1230 CURVE SMOOTH",
"1260 1202.39 OFFCURVE",
"1282.39 1180 OFFCURVE",
"1310 1180 CURVE SMOOTH"
);
},
{
closed = 1;
nodes = (
"157.614 1180 OFFCURVE",
"180 1202.39 OFFCURVE",
"180 1230 CURVE SMOOTH",
"180 1257.61 OFFCURVE",
"157.614 1280 OFFCURVE",
"130 1280 CURVE SMOOTH",
"102.386 1280 OFFCURVE",
"80 1257.61 OFFCURVE",
"80 1230 CURVE SMOOTH",
"80 1202.39 OFFCURVE",
"102.386 1180 OFFCURVE",
"130 1180 CURVE SMOOTH"
);
}
);
width = 1440;
}
);
unicode = 0042;
},
{
glyphname = C;
lastChange = "2013-12-16 23:02:42 +0000";
layers = (
{
layerId = "940E2F63-624A-4C3D-A909-721782B4CF41";
name = Regular;
paths = (
{
closed = 1;
nodes = (
"1360 100 LINE",
"180 100 LINE",
"180 1180 LINE",
"1360 1180 LINE",
"1260 1280 LINE",
"180 1280 LINE",
"80 1180 LINE",
"80 100 LINE",
"180 0 LINE",
"1260 0 LINE"
);
}
);
width = 1440;
}
);
unicode = 0043;
},
{
glyphname = D;
lastChange = "2013-12-16 22:57:02 +0000";
layers = (
{
layerId = "940E2F63-624A-4C3D-A909-721782B4CF41";
name = Regular;
paths = (
{
closed = 1;
nodes = (
"208 10 LINE",
"208 118 LINE",
"198 128 LINE",
"90 128 LINE",
"80 118 LINE",
"198 118 LINE",
"198 10 LINE",
"90 10 LINE",
"90 69 LINE",
"80 59 LINE",
"80 10 LINE",
"90 0 LINE",
"198 0 LINE"
);
}
);
width = 1440;
}
);
unicode = 0044;
},
{
glyphname = E;
lastChange = "2013-12-16 22:57:02 +0000";
layers = (
{
layerId = "940E2F63-624A-4C3D-A909-721782B4CF41";
name = Regular;
paths = (
{
closed = 1;
nodes = (
"198 59 LINE",
"208 69 LINE",
"208 118 LINE",
"198 128 LINE",
"149 128 LINE",
"139 118 LINE",
"198 118 LINE",
"198 69 LINE",
"90 69 LINE",
"90 128 LINE",
"80 118 LINE",
"80 10 LINE",
"90 0 LINE",
"198 0 LINE",
"208 10 LINE",
"90 10 LINE",
"90 59 LINE"
);
}
);
width = 1440;
}
);
unicode = 0045;
},
{
glyphname = F;
lastChange = "2013-12-16 22:57:02 +0000";
layers = (
{
layerId = "940E2F63-624A-4C3D-A909-721782B4CF41";
name = Regular;
paths = (
{
closed = 1;
nodes = (
"90 0 LINE",
"90 59 LINE",
"198 59 LINE",
"208 69 LINE",
"90 69 LINE",
"90 118 LINE",
"208 118 LINE",
"198 128 LINE",
"90 128 LINE",
"80 118 LINE",
"80 10 LINE"
);
}
);
width = 1440;
}
);
unicode = 0046;
},
{
glyphname = H;
lastChange = "2013-12-16 22:57:02 +0000";
layers = (
{
layerId = "940E2F63-624A-4C3D-A909-721782B4CF41";
name = Regular;
paths = (
{
closed = 1;
nodes = (
"198 128 LINE",
"198 69 LINE",
"90 69 LINE",
"90 128 LINE",
"80 118 LINE",
"80 10 LINE",
"90 0 LINE",
"90 59 LINE",
"198 59 LINE",
"198 0 LINE",
"208 10 LINE",
"208 118 LINE"
);
}
);
width = 1440;
}
);
unicode = 0048;
},
{
glyphname = J;
lastChange = "2013-12-16 22:57:02 +0000";
layers = (
{
layerId = "940E2F63-624A-4C3D-A909-721782B4CF41";
name = Regular;
paths = (
{
closed = 1;
nodes = (
"198 128 LINE",
"149 128 LINE",
"139 118 LINE",
"198 118 LINE",
"198 10 LINE",
"80 10 LINE",
"90 0 LINE",
"198 0 LINE",
"208 10 LINE",
"208 118 LINE"
);
}
);
width = 1440;
}
);
unicode = 004A;
},
{
glyphname = K;
lastChange = "2013-12-16 22:57:02 +0000";
layers = (
{
layerId = "940E2F63-624A-4C3D-A909-721782B4CF41";
name = Regular;
paths = (
{
closed = 1;
nodes = (
"208 118 LINE",
"198 128 LINE",
"149 128 LINE",
"139 118 LINE",
"139 69 LINE",
"90 69 LINE",
"90 128 LINE",
"80 118 LINE",
"80 10 LINE",
"90 0 LINE",
"90 59 LINE",
"198 59 LINE",
"198 0 LINE",
"208 10 LINE",
"208 59 LINE",
"198.006 69 LINE",
"149 69 LINE",
"149 118 LINE"
);
}
);
width = 1440;
}
);
unicode = 004B;
},
{
glyphname = L;
lastChange = "2013-12-16 22:57:02 +0000";
layers = (
{
layerId = "940E2F63-624A-4C3D-A909-721782B4CF41";
name = Regular;
paths = (
{
closed = 1;
nodes = (
"198 0 LINE",
"208 10 LINE",
"90 10 LINE",
"90 128 LINE",
"80 118 LINE",
"80 10 LINE",
"90 0 LINE"
);
}
);
width = 1440;
}
);
unicode = 004C;
},
{
glyphname = M;
lastChange = "2013-12-16 22:57:02 +0000";
layers = (
{
layerId = "940E2F63-624A-4C3D-A909-721782B4CF41";
name = Regular;
paths = (
{
closed = 1;
nodes = (
"198 128 LINE",
"90 128 LINE",
"80 118 LINE",
"80 10 LINE",
"90 0 LINE",
"90 118 LINE",
"139 118 LINE",
"139 10 LINE",
"149 0 LINE",
"149 118 LINE",
"198 118 LINE",
"198 0 LINE",
"208 10 LINE",
"208 118 LINE"
);
}
);
width = 1440;
}
);
unicode = 004D;
},
{
glyphname = N;
lastChange = "2013-12-16 22:57:02 +0000";
layers = (
{
layerId = "940E2F63-624A-4C3D-A909-721782B4CF41";
name = Regular;
paths = (
{
closed = 1;
nodes = (
"208 10 LINE",
"198 0 LINE",
"149 0 LINE",
"139 10 LINE",
"139 118 LINE",
"90 118 LINE",
"90 0 LINE",
"80 10 LINE",
"80 118 LINE",
"90 128 LINE",
"139 128 LINE",
"149 118 LINE",
"149 10 LINE",
"198 10 LINE",
"198 128 LINE",
"208 118 LINE"
);
}
);
width = 1440;
}
);
unicode = 004E;
},
{
glyphname = O;
lastChange = "2013-12-16 22:57:02 +0000";
layers = (
{
layerId = "940E2F63-624A-4C3D-A909-721782B4CF41";
name = Regular;
paths = (
{
closed = 1;
nodes = (
"198 128 LINE",
"90 128 LINE",
"80 118 LINE",
"80 10 LINE",
"90 0 LINE",
"198 0 LINE",
"208 10 LINE",
"208 118 LINE"
);
},
{
closed = 1;
nodes = (
"198 10 LINE",
"90 10 LINE",
"90 118 LINE",
"198 118 LINE"
);
}
);
width = 1440;
}
);
unicode = 004F;
},
{
glyphname = P;
lastChange = "2013-12-16 22:57:02 +0000";
layers = (
{
layerId = "940E2F63-624A-4C3D-A909-721782B4CF41";
name = Regular;
paths = (
{
closed = 1;
nodes = (
"80 10 LINE",
"80 118 LINE",
"90 128 LINE",
"198 128 LINE",
"208 118 LINE",
"208 69 LINE",
"198 59 LINE",
"149 59 LINE",
"139 69 LINE",
"198 69 LINE",
"198 118 LINE",
"90 118 LINE",
"90 0 LINE"
);
}
);
width = 1440;
}
);
unicode = 0050;
},
{
glyphname = Q;
lastChange = "2013-12-16 22:57:02 +0000";
layers = (
{
layerId = "940E2F63-624A-4C3D-A909-721782B4CF41";
name = Regular;
paths = (
{
closed = 1;
nodes = (
"198 10 LINE",
"149 10 LINE",
"149 59 LINE",
"139 69 LINE",
"139 10 LINE",
"90 10 LINE",
"90 118 LINE",
"198 118 LINE"
);
},
{
closed = 1;
nodes = (
"198 128 LINE",
"90 128 LINE",
"80 118 LINE",
"80 10 LINE",
"90 0 LINE",
"198 0 LINE",
"208 10 LINE",
"208 118 LINE"
);
}
);
width = 1440;
}
);
unicode = 0051;
},
{
glyphname = R;
lastChange = "2013-12-16 22:57:02 +0000";
layers = (
{
layerId = "940E2F63-624A-4C3D-A909-721782B4CF41";
name = Regular;
paths = (
{
closed = 1;
nodes = (
"198 59 LINE",
"208 69 LINE",
"208 118 LINE",
"198 128 LINE",
"90 128 LINE",
"80 118 LINE",
"80 10 LINE",
"90 0 LINE",
"90 118 LINE",
"198 118 LINE",
"198 69 LINE",
"149 69 LINE",
"139 59 LINE",
"139 10 LINE",
"149 0 LINE",
"198 0 LINE",
"208 10 LINE",
"149 10 LINE",
"149 59 LINE"
);
}
);
width = 1440;
}
);
unicode = 0052;
},
{
glyphname = T;
lastChange = "2013-12-16 22:57:02 +0000";
layers = (
{
layerId = "940E2F63-624A-4C3D-A909-721782B4CF41";
name = Regular;
paths = (
{
closed = 1;
nodes = (
"90 128 LINE",
"80 118 LINE",
"139 118 LINE",
"139 10 LINE",
"149 0 LINE",
"149 118 LINE",
"208 118 LINE",
"198 128 LINE"
);
}
);
width = 1440;
}
);
unicode = 0054;
},
{
glyphname = V;
lastChange = "2013-12-16 22:57:02 +0000";
layers = (
{
layerId = "940E2F63-624A-4C3D-A909-721782B4CF41";
name = Regular;
paths = (
{
closed = 1;
nodes = (
"80 10 LINE",
"90 0 LINE",
"139 0 LINE",
"149 9.99193 LINE",
"149 59 LINE",
"198 59 LINE",
"208 69 LINE",
"208 118 LINE",
"198 128 LINE",
"198 69 LINE",
"149 69 LINE",
"139 59 LINE",
"139 10 LINE",
"90 10 LINE",
"90 128 LINE",
"80 118 LINE"
);
}
);
width = 1440;
}
);
unicode = 0056;
},
{
glyphname = X;
lastChange = "2013-12-16 22:57:02 +0000";
layers = (
{
layerId = "940E2F63-624A-4C3D-A909-721782B4CF41";
name = Regular;
paths = (
{
closed = 1;
nodes = (
"208 118 LINE",
"198 128 LINE",
"90 128 LINE",
"80 118 LINE",
"80 69 LINE",
"90 59 LINE",
"90 118 LINE",
"139 118 LINE",
"139 10 LINE",
"80 10 LINE",
"90 0 LINE",
"198 0 LINE",
"208 10 LINE",
"208 59 LINE",
"198 69 LINE",
"198 10 LINE",
"149 10 LINE",
"149 118 LINE"
);
}
);
width = 1440;
}
);
unicode = 0058;
},
{
glyphname = Y;
lastChange = "2013-12-16 22:57:02 +0000";
layers = (
{
layerId = "940E2F63-624A-4C3D-A909-721782B4CF41";
name = Regular;
paths = (
{
closed = 1;
nodes = (
"198 128 LINE",
"198 69 LINE",
"90 69 LINE",
"90 128 LINE",
"80 118 LINE",
"80 69 LINE",
"90 59 LINE",
"198 59 LINE",
"198 10 LINE",
"80 10 LINE",
"90 0 LINE",
"198 0 LINE",
"208 10 LINE",
"208 118 LINE"
);
}
);
width = 1440;
}
);
unicode = 0059;
},
{
glyphname = zero;
lastChange = "2013-12-16 22:57:02 +0000";
layers = (
{
components = (
{
name = O;
transform = "{1, 0, 0, 1, 13, 0}";
}
);
layerId = "940E2F63-624A-4C3D-A909-721782B4CF41";
name = Regular;
paths = (
{
closed = 1;
nodes = (
"80 59 LINE",
"90 69 LINE",
"80 69 LINE"
);
}
);
width = 1440;
}
);
unicode = 0030;
},
{
glyphname = one;
lastChange = "2013-12-16 22:57:02 +0000";
layers = (
{
layerId = "940E2F63-624A-4C3D-A909-721782B4CF41";
name = Regular;
paths = (
{
closed = 1;
nodes = (
"149 10 LINE",
"149 118 LINE",
"139 128 LINE",
"90 128 LINE",
"80 118 LINE",
"139 118 LINE",
"139 10 LINE",
"80 10 LINE",
"90 0 LINE",
"198 0 LINE",
"208 10 LINE"
);
}
);
width = 1440;
}
);
unicode = 0031;
},
{
glyphname = four;
lastChange = "2013-12-16 22:57:02 +0000";
layers = (
{
layerId = "940E2F63-624A-4C3D-A909-721782B4CF41";
name = Regular;
paths = (
{
closed = 1;
nodes = (
"198 128 LINE",
"198 69 LINE",
"90 69 LINE",
"90 128 LINE",
"80 118 LINE",
"80 69 LINE",
"90 59 LINE",
"198 59 LINE",
"198 0 LINE",
"208 10 LINE",
"208 118 LINE"
);
}
);
width = 1440;
}
);
unicode = 0034;
},
{
glyphname = seven;
lastChange = "2013-12-16 22:57:02 +0000";
layers = (
{
layerId = "940E2F63-624A-4C3D-A909-721782B4CF41";
name = Regular;
paths = (
{
closed = 1;
nodes = (
"198 128 LINE",
"90 128 LINE",
"80 118 LINE",
"198 118 LINE",
"198 69 LINE",
"149 69 LINE",
"139 59 LINE",
"139 10 LINE",
"149 0 LINE",
"149 59 LINE",
"198 59 LINE",
"208 69 LINE",
"208 118 LINE"
);
}
);
width = 1440;
}
);
unicode = 0037;
},
{
glyphname = eight;
lastChange = "2013-12-16 22:57:02 +0000";
layers = (
{
layerId = "940E2F63-624A-4C3D-A909-721782B4CF41";
name = Regular;
paths = (
{
closed = 1;
nodes = (
"198 69 LINE",
"90 69 LINE",
"90 118 LINE",
"198 118 LINE"
);
},
{
closed = 1;
nodes = (
"198 10 LINE",
"90 10 LINE",
"90 59 LINE",
"198 59 LINE"
);
},
{
closed = 1;
nodes = (
"198 128 LINE",
"90 128 LINE",
"80 118 LINE",
"80 10 LINE",
"90 0 LINE",
"198 0 LINE",
"208 10 LINE",
"208 118 LINE"
);
}
);
width = 1440;
}
);
unicode = 0038;
},
{
glyphname = asterisk;
lastChange = "2013-12-16 22:57:02 +0000";
layers = (
{
components = (
{
name = plus;
transform = "{1, 0, 0, 1, 72, 0}";
}
);
layerId = "940E2F63-624A-4C3D-A909-721782B4CF41";
name = Regular;
paths = (
{
closed = 1;
nodes = (
"80 118 LINE",
"90 118 LINE",
"90 128 LINE"
);
},
{
closed = 1;
nodes = (
"198 118 LINE",
"208 118 LINE",
"198 128 LINE"
);
},
{
closed = 1;
nodes = (
"90 0 LINE",
"90 10 LINE",
"80 10 LINE"
);
},
{
closed = 1;
nodes = (
"198 0 LINE",
"208 10 LINE",
"198 10 LINE"
);
}
);
width = 1440;
}
);
unicode = 002A;
},
{
glyphname = backslash;
lastChange = "2013-12-16 22:57:02 +0000";
layers = (
{
layerId = "940E2F63-624A-4C3D-A909-721782B4CF41";
name = Regular;
paths = (
{
closed = 1;
nodes = (
"80 10 LINE",
"90 0 LINE",
"90 128 LINE",
"80 118 LINE"
);
},
{
closed = 1;
nodes = (
"139 10 LINE",
"149 0 LINE",
"149 118 LINE",
"139 128 LINE"
);
},
{
closed = 1;
nodes = (
"198 0 LINE",
"208 10 LINE",
"208 118 LINE",
"198 128 LINE"
);
}
);
width = 1440;
}
);
unicode = 005C;
},
{
glyphname = bullet;
lastChange = "2013-12-16 22:57:02 +0000";
layers = (
{
layerId = "940E2F63-624A-4C3D-A909-721782B4CF41";
name = Regular;
paths = (
{
closed = 1;
nodes = (
"90 128 LINE",
"80 118 LINE",
"208 118 LINE",
"198 128 LINE"
);
},
{
closed = 1;
nodes = (
"90 69 LINE",
"80 59 LINE",
"198 59 LINE",
"208 69 LINE"
);
},
{
closed = 1;
nodes = (
"80 10 LINE",
"90 0 LINE",
"198 0 LINE",
"208 10 LINE"
);
}
);
width = 1440;
}
);
unicode = 2022;
},
{
glyphname = comma;
lastChange = "2013-12-16 22:57:02 +0000";
layers = (
{
layerId = "940E2F63-624A-4C3D-A909-721782B4CF41";
name = Regular;
paths = (
{
closed = 1;
nodes = (
"198 128 LINE",
"90 128 LINE",
"80 118 LINE",
"80 10 LINE",
"90 0 LINE",
"198 0 LINE",
"208 10 LINE",
"208 118 LINE"
);
}
);
width = 1440;
}
);
unicode = 002C;
},
{
glyphname = ellipsis;
lastChange = "2013-12-16 22:57:02 +0000";
layers = (
{
layerId = "940E2F63-624A-4C3D-A909-721782B4CF41";
name = Regular;
paths = (
{
closed = 1;
nodes = (
"90 10 LINE",
"80 10 LINE",
"90 0 LINE"
);
},
{
closed = 1;
nodes = (
"208 10 LINE",
"198 10 LINE",
"198 0 LINE"
);
},
{
closed = 1;
nodes = (
"149 10 LINE",
"139 10 LINE",
"149 0 LINE"
);
},
{
closed = 1;
nodes = (
"90 128 LINE",
"80 118 LINE",
"208 118 LINE",
"198 128 LINE"
);
},
{
closed = 1;
nodes = (
"90 69 LINE",
"80 59 LINE",
"198 59 LINE",
"208 69 LINE"
);
}
);
width = 1440;
}
);
unicode = 2026;
},
{
glyphname = exclam;
lastChange = "2013-12-16 22:57:02 +0000";
layers = (
{
layerId = "940E2F63-624A-4C3D-A909-721782B4CF41";
name = Regular;
paths = (
{
closed = 1;
nodes = (
"208 118 LINE",
"198 128 LINE",
"198 59 LINE",
"208 69 LINE"
);
},
{
closed = 1;
nodes = (
"149 118 LINE",
"139 128 LINE",
"139 69 LINE",
"149 59 LINE"
);
},
{
closed = 1;
nodes = (
"90 128 LINE",
"80 118 LINE",
"80 69 LINE",
"90 59 LINE"
);
},
{
closed = 1;
nodes = (
"90 10 LINE",
"80 10 LINE",
"90 0 LINE"
);
},
{
closed = 1;
nodes = (
"208 10 LINE",
"198 10 LINE",
"198 0 LINE"
);
},
{
closed = 1;
nodes = (
"149 10 LINE",
"139 10 LINE",
"149 0 LINE"
);
}
);
width = 1440;
}
);
unicode = 0021;
},
{
glyphname = exclamdown;
lastChange = "2013-12-16 22:57:02 +0000";
layers = (
{
layerId = "940E2F63-624A-4C3D-A909-721782B4CF41";
name = Regular;
paths = (
{
closed = 1;
nodes = (
"80 10 LINE",
"90 0 LINE",
"90 69 LINE",
"80 59 LINE"
);
},
{
closed = 1;
nodes = (
"139 10 LINE",
"149 0 LINE",
"149 59 LINE",
"139 69 LINE"
);
},
{
closed = 1;
nodes = (
"198 0 LINE",
"208 10 LINE",
"208 59 LINE",
"198 69 LINE"
);
},
{
closed = 1;
nodes = (
"198 118 LINE",
"208 118 LINE",
"198 128 LINE"
);
},
{
closed = 1;
nodes = (
"80 118 LINE",
"90 118 LINE",
"90 128 LINE"
);
},
{
closed = 1;
nodes = (
"139 118 LINE",
"149 118 LINE",
"139 128 LINE"
);
}
);
width = 1440;
}
);
unicode = 00A1;
},
{
glyphname = numbersign;
lastChange = "2013-12-16 22:57:02 +0000";
layers = (
{
layerId = "940E2F63-624A-4C3D-A909-721782B4CF41";
name = Regular;
paths = (
{
closed = 1;
nodes = (
"90 118 LINE",
"139 118 LINE",
"139 69 LINE",
"90 69 LINE"
);
},
{
closed = 1;
nodes = (
"198 69 LINE",
"149 69 LINE",
"149 118 LINE",
"198 118 LINE"
);
},
{
closed = 1;
nodes = (
"90 10 LINE",
"90 59 LINE",
"139 59 LINE",
"139 10 LINE"
);
},
{
closed = 1;
nodes = (
"198 10 LINE",
"149 10 LINE",
"149 59 LINE",
"198 59 LINE"
);
},
{
closed = 1;
nodes = (
"198 128 LINE",
"90 128 LINE",
"80 118 LINE",
"80 10 LINE",
"90 0 LINE",
"198 0 LINE",
"208 10 LINE",
"208 118 LINE"
);
}
);
width = 1440;
}
);
unicode = 0023;
},
{
glyphname = question;
lastChange = "2013-12-16 22:57:02 +0000";
layers = (
{
layerId = "940E2F63-624A-4C3D-A909-721782B4CF41";
name = Regular;
paths = (
{
closed = 1;
nodes = (
"198 128 LINE",
"90 128 LINE",
"80 118 LINE",
"198 118 LINE",
"198 69 LINE",
"139 69 LINE",
"149 59 LINE",
"198 59 LINE",
"208 69 LINE",
"208 118 LINE"
);
},
{
closed = 1;
nodes = (
"149 10 LINE",
"139 10 LINE",
"149 0 LINE"
);
}
);
width = 1440;
}
);
unicode = 003F;
},
{
glyphname = braceleft;
lastChange = "2013-12-16 22:57:02 +0000";
layers = (
{
layerId = "940E2F63-624A-4C3D-A909-721782B4CF41";
name = Regular;
paths = (
{
closed = 1;
nodes = (
"208 118 LINE",
"198 128 LINE",
"149 128 LINE",
"139 118 LINE",
"139 69 LINE",
"90 69 LINE",
"80 59 LINE",
"139 59 LINE",
"139 10 LINE",
"149 0 LINE",
"198 0 LINE",
"208 10 LINE",
"149 10 LINE",
"149 118 LINE"
);
}
);
width = 1440;
}
);
unicode = 007B;
},
{
glyphname = braceright;
lastChange = "2013-12-16 22:57:02 +0000";
layers = (
{
layerId = "940E2F63-624A-4C3D-A909-721782B4CF41";
name = Regular;
paths = (
{
closed = 1;
nodes = (
"139 10 LINE",
"80 10 LINE",
"90 0 LINE",
"139 0 LINE",
"149 10 LINE",
"149 59 LINE",
"198 59 LINE",
"208 69 LINE",
"149 69 LINE",
"149 118 LINE",
"139 128 LINE",
"90 128 LINE",
"80 118 LINE",
"139 118 LINE"
);
}
);
width = 1440;
}
);
unicode = 007D;
},
{
color = 0;
glyphname = dollar;
lastChange = "2013-12-16 22:57:02 +0000";
layers = (
{
components = (
{
name = s;
transform = "{1, 0, 0, 1, 13, 0}";
}
);
layerId = "940E2F63-624A-4C3D-A909-721782B4CF41";
name = Regular;
paths = (
{
closed = 1;
nodes = (
"80 7 LINE",
"90 7 LINE",
"90 122 LINE",
"80 122 LINE"
);
}
);
width = 1440;
}
);
unicode = 0024;
},
{
color = 0;
glyphname = euro;
lastChange = "2013-12-16 22:57:02 +0000";
layers = (
{
components = (
{
name = braceleft;
transform = "{1, 0, 0, 1, 24, 0}";
}
);
layerId = "940E2F63-624A-4C3D-A909-721782B4CF41";
name = Regular;
paths = (
{
closed = 1;
nodes = (
"80 59 LINE",
"150 59 LINE",
"160 69 LINE",
"80 69 LINE"
);
}
);
width = 1440;
}
);
unicode = 20AC;
},
{
glyphname = divide;
lastChange = "2013-12-16 22:57:02 +0000";
layers = (
{
layerId = "940E2F63-624A-4C3D-A909-721782B4CF41";
name = Regular;
paths = (
{
closed = 1;
nodes = (
"139 128 LINE",
"139 118 LINE",
"149 118 LINE"
);
},
{
closed = 1;
nodes = (
"139 10 LINE",
"149 0 LINE",
"149 10 LINE"
);
},
{
closed = 1;
nodes = (
"90 69 LINE",
"80 59 LINE",
"198 59 LINE",
"208 69 LINE"
);
}
);
width = 1440;
}
);
unicode = 00F7;
},
{
color = 0;
glyphname = percent;
lastChange = "2013-12-16 22:57:02 +0000";
layers = (
{
layerId = "940E2F63-624A-4C3D-A909-721782B4CF41";
name = Regular;
paths = (
{
closed = 1;
nodes = (
"198 128 LINE",
"198 69 LINE",
"90 69 LINE",
"80 59 LINE",
"80 10 LINE",
"90 0 LINE",
"90 59 LINE",
"198 59 LINE",
"208 69 LINE",
"208 118 LINE"
);
},
{
closed = 1;
nodes = (
"139 128 LINE",
"90 128 LINE",
"80 118 LINE",
"149 118 LINE"
);
},
{
closed = 1;
nodes = (
"149 0 LINE",
"198 0 LINE",
"208 10 LINE",
"139 10 LINE"
);
}
);
width = 1440;
}
);
unicode = 0025;
},
{
glyphname = plus;
lastChange = "2013-12-16 22:57:02 +0000";
layers = (
{
layerId = "940E2F63-624A-4C3D-A909-721782B4CF41";
name = Regular;
paths = (
{
closed = 1;
nodes = (
"208 69 LINE",
"149 69 LINE",
"149 118 LINE",
"139 128 LINE",
"139 69 LINE",
"90 69 LINE",
"80 59 LINE",
"139 59 LINE",
"139 10 LINE",
"149 0 LINE",
"149 59 LINE",
"198 59 LINE"
);
}
);
width = 1440;
}
);
unicode = 002B;
},
{
color = 0;
glyphname = plusminus;
lastChange = "2013-12-16 22:57:02 +0000";
layers = (
{
layerId = "940E2F63-624A-4C3D-A909-721782B4CF41";
name = Regular;
paths = (
{
closed = 1;
nodes = (
"80 118 LINE",
"208 118 LINE",
"198 128 LINE",
"90 128 LINE"
);
},
{
closed = 1;
nodes = (
"80 59 LINE",
"198 59 LINE",
"208 69 LINE",
"90 69 LINE"
);
},
{
closed = 1;
nodes = (
"90 0 LINE",
"198 0 LINE",
"208 10 LINE",
"80 10 LINE"
);
}
);
width = 1440;
}
);
unicode = 00B1;
},
{
glyphname = ampersand;
lastChange = "2013-12-16 22:57:02 +0000";
layers = (
{
layerId = "940E2F63-624A-4C3D-A909-721782B4CF41";
name = Regular;
paths = (
{
closed = 1;
nodes = (
"149 128 LINE",
"139 118 LINE",
"139 69 LINE",
"90 69 LINE",
"80 59 LINE",
"80 10 LINE",
"90 0 LINE",
"198 0 LINE",
"208 10 LINE",
"90 10 LINE",
"90 59 LINE",
"198 59 LINE",
"208 69 LINE",
"208 118 LINE",
"198 128 LINE"
);
},
{
closed = 1;
nodes = (
"198 69 LINE",
"149 69 LINE",
"149 118 LINE",
"198 118 LINE"
);
}
);
width = 1440;
}
);
unicode = 0026;
},
{
glyphname = degree;
lastChange = "2013-12-16 22:57:02 +0000";
layers = (
{
layerId = "940E2F63-624A-4C3D-A909-721782B4CF41";
name = Regular;
paths = (
{
closed = 1;
nodes = (
"149 118 LINE",
"139 128 LINE",
"90 128 LINE",
"80 118 LINE",
"80 69 LINE",
"89.9996 59 LINE",
"139 59 LINE",
"149 69 LINE"
);
},
{
closed = 1;
nodes = (
"139 118 LINE",
"139 69 LINE",
"90 69 LINE",
"90 118 LINE"
);
},
{
closed = 1;
nodes = (
"198 10 LINE",
"139 10 LINE",
"149 0 LINE",
"198 0 LINE",
"208 10 LINE",
"208 59 LINE",
"198 69 LINE"
);
}
);
width = 1440;
}
);
unicode = 00B0;
},
